<svg xmlns="http://www.w3.org/2000/svg" xmlns:xlink="http://www.w3.org/1999/xlink" width="268" height="248.792" viewBox="0 0 268 248.792">
  <defs>
    <clipPath id="clip-path">
      <path id="Path_17086" data-name="Path 17086" d="M128.49,0C199.454,0,268-3.4,268,67.568s-68.546,181.2-139.51,181.2S0,199.455,0,128.491A128.49,128.49,0,0,1,128.49,0Z" transform="translate(1455 653)" fill="#fff" stroke="#707070" stroke-width="1"/>
    </clipPath>
  </defs>
  <g id="Mask_Group_3" data-name="Mask Group 3" transform="translate(-1455 -652.975)" clip-path="url(#clip-path)">
    <g id="Group_5845" data-name="Group 5845" transform="translate(1423.973 668.032)">
      <path id="Path_17073" data-name="Path 17073" d="M2401.439,1021.833s-136.045-50.356-105.424-107.687,62.543-11.076,125.737-35.832,13.1-24.235,15.636-48.862c4.561-44.3,187.63-93.815,161.571,9.772S2563.66,1043.984,2401.439,1021.833Z" transform="translate(-2291.525 -777.922)" fill="#daedff" opacity="0.55"/>
      <g id="Group_5844" data-name="Group 5844" transform="translate(0.047 5.577)">
        <path id="Path_17074" data-name="Path 17074" d="M2344.762,885.605l46.918,35.44a4.731,4.731,0,0,1,.2,7.39l-2.889,2.44a4.732,4.732,0,0,1-6.139-.029l-44.028-37.88a4.731,4.731,0,0,1,.435-7.505h0A4.73,4.73,0,0,1,2344.762,885.605Z" transform="translate(-2294.715 -780.64)" fill="#cae3ff"/>
        <path id="Path_17075" data-name="Path 17075" d="M2483.87,821.816s4.976,26.434-6.841,38.562c12.595,8.4,19.717-8.548,22.982-13.679-4.975-6.064-9.921-19.752-9.61-24.105A36.823,36.823,0,0,0,2483.87,821.816Z" transform="translate(-2304.094 -776.427)" fill="#fecaa9"/>
        <path id="Path_17076" data-name="Path 17076" d="M2502.177,851.037S2558.367,921.4,2531,974.573s-67.247,37.853-67.247,37.853l-32.271-4.871S2451,879.8,2473.7,863.321,2502.177,851.037,2502.177,851.037Z" transform="translate(-2302.743 -778.354)" fill="#5f7add"/>
        <path id="Path_17077" data-name="Path 17077" d="M2497.4,840.071s-11.759,8.98-16.89,9.407l-8.766,14.539s29.718-7.7,31.429-13.683C2502.961,846.7,2497.4,840.071,2497.4,840.071Z" transform="translate(-2303.74 -777.651)" fill="#cae3ff"/>
        <path id="Path_17078" data-name="Path 17078" d="M2500.554,875.62a13.685,13.685,0,0,0-23.088-3.677,146.511,146.511,0,0,0-15.182,21.642c-14.3,24.567-19.125,38.717-19.125,45.247,0,0-34.363-25.5-58.931-36.074l-3.731,4.354s30.787,74.013,58.154,79.61c29.854-4.665,69.037-78.989,65.305-99.2A61.6,61.6,0,0,0,2500.554,875.62Z" transform="translate(-2297.62 -779.466)" fill="#6e84ec"/>
        <path id="Path_17079" data-name="Path 17079" d="M2469.893,801.538s-9.375-1.306-9.426-8.81,7.8-7.28,12.417-12.173,9.669-10.147,13.6-5.733,5.992,7.47,11.314,8.913,2.232,6.01,3.828,10.526,8.624,1.283,7.365,11.385c-.641,5.136-10.974,8.258-9.36,11.521s-1.719,9.89-5.513,8.12-11.79-15.3-9.368-20.259.273-11.813-4.742-7.658S2475.028,801.282,2469.893,801.538Z" transform="translate(-2302.983 -773.164)" fill="#f85020"/>
        <path id="Path_17080" data-name="Path 17080" d="M2565.933,860.223s-17.1-16.171-23.323-3.421-7.774,46.025-7.774,46.025l-11.506,90.495S2574.642,909.046,2565.933,860.223Z" transform="translate(-2305.118 -777.404)" fill="#cae3ff"/>
        <path id="Path_17081" data-name="Path 17081" d="M2558.576,840.041s-18.348-7.775-14.616-26.434,13.061-27.988,22.39-16.481S2585.632,845.327,2558.576,840.041Z" transform="translate(-2308.549 -774.433)" fill="#cae3ff"/>
        <path id="Path_17082" data-name="Path 17082" d="M2468.842,799.847l-2.561,16.4s4.207,1.254,4.121,3.3,3.421,8.512,11.629,7.757,5.754-9.329,11.226-13.265c3.747-2.7,1.719-10.913-2.48-9.28-3.082,1.2-5.6-3.848-8.746-7C2478.322,794.048,2475.659,792.207,2468.842,799.847Z" transform="translate(-2303.373 -774.598)" fill="#fecaa9"/>
        <path id="Path_17083" data-name="Path 17083" d="M2491.381,801.394c0,3.542-2.988,3.265-6.53,3.265s-14.327.205-16.949-2.177c-4.237-3.848,2.833-11.662,6.376-11.662S2491.381,797.852,2491.381,801.394Z" transform="translate(-2303.394 -774.348)" fill="#f85020"/>
        <path id="Path_17084" data-name="Path 17084" d="M2382.794,903.886s-.162-.3-.457-.827c-2.329-4.154-11.074-20.224-17.579-19.076a8.121,8.121,0,0,0-5.6,4.431,84.88,84.88,0,0,0,.466,11.662c.7,6.3,20.292,8.63,20.292,8.63" transform="translate(-2296.187 -780.592)" fill="#fecaa9"/>
        <path id="Path_17085" data-name="Path 17085" d="M2355.1,907.487l-63.439,45.4L2324,974.037l39.183-58.153Z" transform="translate(-2291.663 -782.172)" fill="#cae3ff"/>
      </g>
    </g>
  </g>
</svg>
