<?xml version="1.0" encoding="utf-8"?>
<!-- Generator: Adobe Illustrator 22.0.0, SVG Export Plug-In . SVG Version: 6.00 Build 0)  -->
<svg version="1.1" id="Layer_1" xmlns="http://www.w3.org/2000/svg" xmlns:xlink="http://www.w3.org/1999/xlink" x="0px" y="0px"
	 viewBox="0 0 264 277" style="enable-background:new 0 0 264 277;" xml:space="preserve">
<style type="text/css">
	.st0{fill:none;}
	.st1{opacity:0.41;fill:#FCDEA6;enable-background:new    ;}
	.st2{fill:#6E84EC;}
	.st3{fill:#FCDEA6;}
	.st4{fill:#E9F4FF;}
	.st5{fill:#FAAD59;}
	.st6{fill:#FB7461;}
	.st7{fill:#FECAA9;}
	.st8{fill:#5F7ADD;}
	.st9{fill:#FFECC1;}
	.st10{fill:#F7B44B;}
</style>
<path class="st0" d="z"/>
<path id="Path_17101" class="st1" d="M-2117.8,2197c33.5-45.8,112.6-32,124,38.8s-10.7,96.6,41.1,104.2s105.8,50.2,49.5,72.3
	s-189.4,17.5-219.1-39.6S-2151.3,2242.9-2117.8,2197z"/>
<path id="Path_17101_1_" class="st1" d="M-2117.8,3143.9"/>
<path id="Path_17101_2_" class="st1" d="M26,34.6c33.5-45.8,112.6-32,124,38.8s-10.7,96.6,41.1,104.2s105.8,50.2,49.5,72.3
	S51.1,267.4,21.4,210.3S-7.5,80.4,26,34.6z"/>
<g id="Group_5840" transform="translate(-2157.323 -212.934)">
	<path id="Path_17042" class="st2" d="M2314.7,307.5c0,0,41.3,36,50.7,66s2.7,37.7,2.7,37.7s12,12.3,11.3,22.7s-16.7,20-16.7,20
		l2.3-36.7l-30.8-35.2C2334.2,382,2304,327.2,2314.7,307.5z"/>
	<path id="Path_17043" class="st3" d="M2335.7,373.3l38.2,3.8l-11.3,87.7l-19.7-8.3L2335.7,373.3z"/>
	<path id="Path_17044" class="st4" d="M2366.7,384.3l-7.7,70.5l-23.5-6.3l1.8-69.5L2366.7,384.3z"/>
	<path id="Path_17045" class="st5" d="M2359.3,374.7l-3.9,7.9l-13.7-2.1l-1.5-6.9L2359.3,374.7z"/>
	<path id="Path_17046" class="st6" d="M2272.7,257.4c0,0-12.3,2.2-14.7-11.2s3.3-28.2,17.7-29.5S2285.5,255.4,2272.7,257.4z"/>
	<path id="Path_17047" class="st7" d="M2290.3,225.4c0,0,11.7,24.8,0.8,41.3c-5.2,6.5-19.5-6.7-22.5-18S2272.2,209.9,2290.3,225.4z"
		/>
	<path id="Path_17048" class="st7" d="M2269.3,239.9c0,0-1.5-6.8-5.2-2s2.7,13.5,5.3,10.3S2269.3,239.9,2269.3,239.9z"/>
	<path id="Path_17049" class="st6" d="M2301,229.2c0,0-26.3,14.6-33.1,2.3c-5.4-9.8,12.6-24.1,23.4-16.3S2301,229.2,2301,229.2z"/>
	<path id="Path_17050" class="st7" d="M2283.5,262.5c0,0,5.3,28.3-7.3,41.3c13.5,9,21.8,7.2,25.3,1.7c-5.3-6.5-11.3-37.5-11-42.2
		C2288.2,262.9,2285.8,262.6,2283.5,262.5z"/>
	<path id="Path_17051" class="st8" d="M2278.7,301.3c0,0-10.8,2.4-14,4.2c-6.1,3.3-21.2,17.8-21.2,17.8s-6.5,57.2-0.8,60.2
		s-7.7,92.3,4.3,98.7s79.7,16.7,92.7-7s3.3-99.7-1.7-108.7s-22.3-57.7-22.3-57.7s-5.4-4.5-7.5-5.5c-2-1-8.7-2.5-8.7-2.5
		S2284.7,311.7,2278.7,301.3z"/>
	<path id="Path_17052" class="st9" d="M2256.8,374.1l-80.4,27.1l26,51.7l76-21.7L2256.8,374.1z"/>
	<path id="Path_17053" class="st3" d="M2285.3,353.2l-28.6,20.9l21.6,57.1l25.3-20.3L2285.3,353.2z"/>
	<path id="Path_17054" class="st5" d="M2176.3,401.2l20.3-16.7l88.7-31.3l-28.6,20.9L2176.3,401.2z"/>
	<path id="Path_17055" class="st10" d="M2366.9,435.5c-3.9,3-8.2,5.6-12.7,7.5c-6.6,2.6,6,15.3,9.4,13.1
		C2377,447.4,2366.9,435.5,2366.9,435.5z"/>
	<path id="Path_17056" class="st5" d="M2271,452.7c0,0,5.7,6.6,11.8,4.4s1-9.6-1-9.7c1-0.8,2.8-3.9,1.2-4.4s-8.5,0.9-8.5,0.9
		L2271,452.7z"/>
	<path id="Path_17057" class="st2" d="M2276,443.3c0,0-33-21-53-39.3c22-16,27-29.5,35.7-39.8c11.7-7.7,16.7-48,6-50.7
		s-43.3,26-59.3,53s-27.7,41.7-17.3,56.1c13,18,82.7,30.7,82.7,30.7L2276,443.3z"/>
</g>
</svg>
