<?xml version="1.0" encoding="utf-8"?>
<!-- Generator: Adobe Illustrator 22.0.0, SVG Export Plug-In . SVG Version: 6.00 Build 0)  -->
<svg version="1.1" id="Group_5843" xmlns="http://www.w3.org/2000/svg" xmlns:xlink="http://www.w3.org/1999/xlink" x="0px" y="0px"
	 viewBox="0 0 260.8 223.7" style="enable-background:new 0 0 260.8 223.7;" xml:space="preserve">
<style type="text/css">
	.st0{fill:#EBF5FF;}
	.st1{fill:#EF7631;}
	.st2{fill:#97D38D;}
	.st3{fill:#F7B794;}
	.st4{fill:#FECAA9;}
	.st5{fill:#B5DFB0;}
	.st6{fill:#FFB4A4;}
	.st7{fill:#85C178;}
	.st8{fill:#BABAC8;}
	.st9{fill:#E2E2E4;}
	.st10{fill:#DCDCDE;}
	.st11{fill:#A3A3B7;}
</style>
<path id="Path_17103" class="st0" d="M260.2,140.7c-3.9-21.2-50.9-139.5-129.3-125.4S17.3,60.8,32.2,99.2s-72.1,68.2-7.1,99.5
	s229.6,36,229.6,0S264.1,161.9,260.2,140.7z"/>
<g>
	<path id="Path_17058" class="st1" d="M147.8,0.6c0,0,17.3-0.2,21.3,12.7s-1.6,27.3,3.3,31.3s23.5,9.9,23.8,20.5
		c0.5,19.7-6.8,21.6-14.5,20.9s-40.6,7.3-50.6,4.5S110.3,79.4,116.1,68s16.2-16.7,13.8-24.4s-1.3-15.6,2.2-18.4S147.8,0.6,147.8,0.6
		z"/>
	<path id="Path_17059" class="st2" d="M166.4,80c0,0,28.9,4.1,49.9,40.2s10,86.3-7.2,91s-5.6,0.9-11.6-4.4s1.6,18.5-18.8,16
		s-63,7.8-68.4-8.5s-29.5-8.8-30.5-31.1S98.6,96,119,87.2S166.4,80,166.4,80z"/>
	<path id="Path_17060" class="st3" d="M149.7,42.6c0,0-4.2,25.3,7.7,37.5c-12.7,8.5-21.4,8.2-24.7,3c5-6.1,10.7-35.3,10.4-39.7
		C145.3,43,147.5,42.7,149.7,42.6z"/>
	<path id="Path_17061" class="st4" d="M157.2,32.8c0,0-3.7,19.5-13.8,19.7c-10-2.2-13.9-27.2-10.2-34.5s19.6-20.5,23.9-12.3
		s2.8,18.9,2.8,18.9s6-3.7,7.2,2S159.2,36.2,157.2,32.8z"/>
	<g id="Group_5841" transform="translate(112.353 108.742)">
		<path id="Path_17062" class="st4" d="M64.7,16.5c0,0,3.4-0.9,2.1-5.4c0.9,0.2,2.4-0.2,2.4-1.1c0.3,1.4,1.2,2.5,2.6,3
			c-2.3,1.5-4.9,3.2-6.2,5s-3.6,1.9-2.3,8.3s5.1,46,12,55.6c3,4.2,13.3,7.9,15.4,4.3s-1.9-24-7.6-35.7s-12.4-20.7-11-26.6
			s5.7-10.9,5.2-12.6s-6.8-6.9-8.3-5.9s-4.9,3-4.9,4.3S64.7,16.5,64.7,16.5z"/>
		<path id="Path_17063" class="st4" d="M60.6,15.1c0.6,2.4,1.4,4.6,2.6,6.8c2.1,4.3,8.3-4.6,8.3-4.6l4.6-6.5c0,0-11.8-15.9-15.5-9
			S60.6,15.1,60.6,15.1z"/>
	</g>
	<path id="Path_17064" class="st5" d="M185.5,129.4c0,0,37.9,53.6,34.6,69.6s-21.6,26.4-34.8-1.9s-12.2-68.2-12.2-68.2L185.5,129.4z
		"/>
	<path id="Path_17065" class="st2" d="M65.6,191c0,0-4.6-13.8,7-35.1S116,89.4,116,89.4l12.9,26.4c0,0-42.3,80.2-52.9,80.2
		S65.6,191,65.6,191z"/>
	<path id="Path_17066" class="st6" d="M165,194.3c0,0-8.1,20.9-33.6,8.9c-12.4,1-51.4-3.7-51.4-3.7l-6.8-3.5l64,3.3L165,194.3z"/>
	<path id="Path_17067" class="st7" d="M128.5,203.4l-1.3-2.5l-56.7-42l-8.4,13C62.1,172,37.2,212.8,128.5,203.4z"/>
	<g id="Group_5842" transform="translate(10.671 136.926)">
		<path id="Path_17068" class="st8" d="M161.6,51.8l-23.1-2.6l6,16.9L161.6,51.8z"/>
		<path id="Path_17069" class="st9" d="M59,0L60,57.1l81.8,8.7l2.7,0.3l-1.1-60.9L59,0z"/>
		<path id="Path_17070" class="st10" d="M59,0L60,57.1l81.8,8.7c0.1,0,0.4,0.1,0.6,0.1C93.9,59.6,59,0,59,0z"/>
		
			<ellipse id="Ellipse_335" transform="matrix(0.9998 -1.858673e-02 1.858673e-02 0.9998 -0.595 1.8639)" class="st11" cx="100" cy="32.9" rx="1.8" ry="2.9"/>
	</g>
	<path id="Path_17071" class="st1" d="M160,24.6c0,0-9.2-13.5-15.4-8.9s-8.1-4.2-8.1-4.2l4.2-7.5c0,0,8.4-3.9,13.1-2.1
		s9.5,10.7,9.5,10.7l0.2,5.9L160,24.6z"/>
	<path id="Path_17072" class="st1" d="M128.4,25.1c5.9,0.3,13.1-4,17.4-10.6s8.1-13.6,0.5-14.4S126.5,3,126.3,9s-5.5,4.4-5.7,9.6
		C120.5,20.4,124.4,24.8,128.4,25.1z"/>
</g>
</svg>
