<svg xmlns="http://www.w3.org/2000/svg" xmlns:xlink="http://www.w3.org/1999/xlink" width="297.954" height="288" viewBox="0 0 297.954 288">
  <defs>
    <clipPath id="clip-path">
      <path id="Path_17102" data-name="Path 17102" d="M149.143,0c82.369,0,148.811,126.176,148.811,198.176S231.512,288,149.143,288,0,223.529,0,144,66.774,0,149.143,0Z" transform="translate(1098 212)" fill="#fff" stroke="#707070" stroke-width="1"/>
    </clipPath>
  </defs>
  <g id="Mask_Group_4" data-name="Mask Group 4" transform="translate(-1098 -212)" clip-path="url(#clip-path)">
    <g id="Group_5847" data-name="Group 5847" transform="translate(1108.286 242.212)">
      <path id="Path_17087" data-name="Path 17087" d="M159.428,234.68s-135.76-7.524-120.022-58.953S105.222,87.9,109.337,42.646,216.3-45.968,247.153,9.575s147.406,116.8,75.406,153.825S208.8,234.68,159.428,234.68Z" transform="translate(-0.022 16.596)" fill="#daedff" opacity="0.81"/>
      <path id="Path_17088" data-name="Path 17088" d="M251.583,200.113a67.083,67.083,0,0,1-16.663,12.446c-18.514,9.977-30.857,15.326-38.983,17.691-13.886,4.011-15.737-.72-15.737-6.171,0-2.88,6.377-7.509,14.606-13.577,15.943-11.829,38.777-29.006,33.84-49.166-2.674-10.8-6.274-18.1-10.183-23.657h0c-7.3-10.183-15.943-14.5-22.629-23.554-15.017-20.16-6.377-41.451-6.377-41.451s29.314-13.783,52.971,21.909C262.794,125.336,279.766,170.8,251.583,200.113Z" transform="translate(5.126 19.071)" fill="#fff"/>
      <path id="Path_17089" data-name="Path 17089" d="M251.177,198.234a67.083,67.083,0,0,1-16.663,12.446c-18.514,9.977-30.857,15.326-38.983,17.691L194.4,208.623c15.943-11.829,38.777-29.006,33.84-49.166-2.674-10.8-6.274-18.1-10.183-23.657C219.086,136.829,256.217,175.4,251.177,198.234Z" transform="translate(5.531 20.95)" fill="#daedff" opacity="0.36"/>
      <path id="Path_17090" data-name="Path 17090" d="M8.9,55.023s10.389,12.651,28.08,10.8c6.069,3.291,5.863,10.183,5.863,10.183l10.183-5.04L46.443,60.783,32.043,54.2Z" transform="translate(0.231 18.618)" fill="#feba9a"/>
      <path id="Path_17091" data-name="Path 17091" d="M193.687,8.844S176.1,7.4,186.8,1.952s24.789,2.057,22.423,8.331c-2.263,6.377-11.211,5.451-11.211,5.451Z" transform="translate(5.216 17.072)" fill="#e4582e"/>
      <path id="Path_17092" data-name="Path 17092" d="M139.744,77.66s-14.914,30.96-52.354,12.549S62.807,69.226,41.721,53.9c-10.286,6.274-4.731,72.72,42.994,92.263s47.726-9.771,41.451,11.52c-6.377,21.291-35.691,85.166-8.023,87.531,27.669,2.263,110.469,8.64,112.217,6.377s2.263-100.183-14.4-134.743S200.429,68.506,184.9,68.506,162.064,61.717,139.744,77.66Z" transform="translate(1.045 18.61)" fill="#fff"/>
      <path id="Path_17093" data-name="Path 17093" d="M190.791,41.877s-.72,26.434,4.217,32.194c-3.5,7.714-15.737,11.931-21.909.72C178.449,60.186,185.751,39.1,185.751,39.1Z" transform="translate(4.923 18.187)" fill="#feba9a"/>
      <path id="Path_17094" data-name="Path 17094" d="M182.714,14.6s.72,15.84-9.669,16.971,1.029,24.789,1.029,24.789-15.223-16.149-7.817-32.194,24.48-22.526,35.486-11.211,8.434,28.8-6.274,30.754S182.714,14.6,182.714,14.6Z" transform="translate(4.669 17.277)" fill="#f47346"/>
      <path id="Path_17095" data-name="Path 17095" d="M184.169,52.249s14.194-5.04,16.149-15.326c4.629-3.806,6.891-7.3.72-8.846C196,24.991,181.8,23.449,182.214,18.1c-.926,9.977-11.314,13.783-11.314,13.783S174.191,57.186,184.169,52.249Z" transform="translate(4.86 17.587)" fill="#fdc1a6"/>
      <path id="Path_17096" data-name="Path 17096" d="M70.2,58.591H4.06a2.173,2.173,0,0,1-2.16-2.16V53.86A2.173,2.173,0,0,1,4.06,51.7H70.2a2.173,2.173,0,0,1,2.16,2.16v2.571A2.322,2.322,0,0,1,70.2,58.591Z" transform="translate(0.031 18.547)" fill="#e2e2e4"/>
      <g id="Group_5846" data-name="Group 5846" transform="translate(21.68 33.835)">
        <path id="Path_17097" data-name="Path 17097" d="M52.06,16.3l-6.377,6.377-9.154,9.051L24.083,19.283,21.1,16.3Z" transform="translate(-21.1 -16.3)" fill="#cae3ff"/>
        <path id="Path_17098" data-name="Path 17098" d="M36.1,52.2V30.7" transform="translate(-20.671 -15.889)" fill="none" stroke="#cae3ff" stroke-miterlimit="10" stroke-width="1"/>
        <line id="Line_16" data-name="Line 16" x1="9.051" transform="translate(10.903 36.309)" fill="#cae3ff"/>
      </g>
      <path id="Path_17099" data-name="Path 17099" d="M27,21.826s6.48-2.366,8.949.411S45.823,21,45.823,21l-9.874,9.566Z" transform="translate(0.749 17.666)" fill="#cae3ff"/>
      <path id="Path_17100" data-name="Path 17100" d="M29.9,21.617a7.946,7.946,0,1,0-10.7-10.7Z" transform="translate(0.526 17.258)" fill="#cae3ff"/>
      <line id="Line_17" data-name="Line 17" x1="3.6" y1="5.246" transform="translate(25.383 27.047)" fill="#cae3ff"/>
      <line id="Line_18" data-name="Line 18" y1="7.097" x2="0.72" transform="translate(26.823 25.195)" fill="#cae3ff"/>
      <line id="Line_19" data-name="Line 19" y1="5.554" x2="5.246" transform="translate(24.56 26.738)" fill="#cae3ff"/>
      <line id="Line_20" data-name="Line 20" y1="1.337" x2="7.303" transform="translate(33.509 32.293)" fill="#cae3ff"/>
      <line id="Line_21" data-name="Line 21" x2="5.863" y2="3.6" transform="translate(34.229 33.63)" fill="#cae3ff"/>
    </g>
  </g>
</svg>
