<svg xmlns="http://www.w3.org/2000/svg" xmlns:xlink="http://www.w3.org/1999/xlink" width="122.485" height="98.662" viewBox="0 0 122.485 98.662">
  <defs>
    <linearGradient id="linear-gradient" y1="0.5" x2="1" y2="0.5" gradientUnits="objectBoundingBox">
      <stop offset="0" stop-color="#4c6ad8"/>
      <stop offset="0.234" stop-color="#5572de"/>
      <stop offset="0.412" stop-color="#607de5"/>
    </linearGradient>
  </defs>
  <g id="Group_5829" data-name="Group 5829" transform="translate(-1286.616 -103.46)">
    <g id="Group_5828" data-name="Group 5828" transform="translate(1304.435 104.024)">
      <path id="Path_16969" data-name="Path 16969" d="M1344.5,162.331c4.019-3.017,5.643-8.923,2.658-10.854-10.326-6.677,1.856-47.454,1.856-47.454h-3.723a13.583,13.583,0,0,0-13.585,13.585V140.6a10.48,10.48,0,0,0,8.164,10.21l.243,9.43Z" transform="translate(-1301.966 -104.024)" opacity="0.26" fill="url(#linear-gradient)"/>
      <line id="Line_11" data-name="Line 11" x2="9.199" y2="9.199" transform="translate(33.644 79.525)" fill="none" stroke="#35495e" stroke-linecap="round" stroke-linejoin="round" stroke-width="1.127"/>
      <path id="Path_16970" data-name="Path 16970" d="M1362.6,117.609V140.6a10.469,10.469,0,0,1-8.164,10.21v9.3l-2.827,1.487a9.507,9.507,0,0,1-8.892.011l-2.848-1.5v-9.3a10.48,10.48,0,0,1-8.164-10.21V117.609a13.583,13.583,0,0,1,13.585-13.585h3.723A13.577,13.577,0,0,1,1362.6,117.609Z" transform="translate(-1301.966 -104.024)" fill="none" stroke="#35495e" stroke-linecap="round" stroke-linejoin="round" stroke-width="1.127"/>
      <path id="Path_16971" data-name="Path 16971" d="M1392.732,193.9a9.221,9.221,0,0,1-8.09,4.746H1312.76A9.236,9.236,0,0,1,1304,186.474l5.622-16.876a18.151,18.151,0,0,1,17.214-12.4h14.577l.011.011,2.837,1.5a9.528,9.528,0,0,0,8.9-.011l2.827-1.487.021-.011h14.577a18.152,18.152,0,0,1,17.214,12.4l5.622,16.876A9.168,9.168,0,0,1,1392.732,193.9Z" transform="translate(-1303.51 -101.112)" fill="none" stroke="#35495e" stroke-linecap="round" stroke-linejoin="round" stroke-width="1.127"/>
      <path id="Path_16972" data-name="Path 16972" d="M1339.448,148.379l1.139.181a39.282,39.282,0,0,0,13.014-.109l.411-.073" transform="translate(-1301.542 -101.595)" fill="none" stroke="#35495e" stroke-linecap="round" stroke-linejoin="round" stroke-width="1.127"/>
      <circle id="Ellipse_39" data-name="Ellipse 39" cx="4.687" cy="4.687" r="4.687" transform="translate(40.501 88.161)" stroke-width="1.127" stroke="#35495e" stroke-linecap="round" stroke-linejoin="round" fill="none"/>
      <path id="Path_16973" data-name="Path 16973" d="M1368.812,189.85a21.289,21.289,0,0,1-1.628,8.177h-6.958a15.169,15.169,0,1,0-25.532,0h-6.959a21.35,21.35,0,1,1,41.077-8.177Z" transform="translate(-1302.273 -100.493)" fill="url(#linear-gradient)"/>
      <path id="Path_16974" data-name="Path 16974" d="M1368.812,189.85a21.289,21.289,0,0,1-1.628,8.177h-6.958a15.169,15.169,0,1,0-25.532,0h-6.959a21.35,21.35,0,1,1,41.077-8.177Z" transform="translate(-1302.273 -100.493)" fill="none" stroke="#35495e" stroke-linecap="round" stroke-linejoin="round" stroke-width="1.127"/>
      <path id="Path_16975" data-name="Path 16975" d="M1342.8,174.736l-1.5,1.8-.01.011-3.47,4.166-1.761,2.131h-.011l-.791-.158h-.011l-5.559-1.118a3.479,3.479,0,0,0-.728-.074,4.012,4.012,0,0,0-3.671,2.268l-6.867,14.229H1312.7a9.217,9.217,0,0,1-8.079-4.746l22.129-22.129a6.852,6.852,0,0,1,4.841-2.015h6.086l.633.707.01.011.812.886Z" transform="translate(-1303.449 -100.46)" fill="#fff"/>
      <line id="Line_12" data-name="Line 12" x1="9.199" y2="9.199" transform="translate(47.637 79.525)" fill="none" stroke="#35495e" stroke-linecap="round" stroke-linejoin="round" stroke-width="1.127"/>
      <path id="Path_16976" data-name="Path 16976" d="M1390.082,193.248a9.221,9.221,0,0,1-8.09,4.746h-5.717l-6.867-14.229a4.024,4.024,0,0,0-3.692-2.268,3.286,3.286,0,0,0-.707.074l-5.58,1.118-.791.158-1.719-2.078-3.5-4.209-1.519-1.825,3.66-4.019,1.466-1.614h6.076a6.815,6.815,0,0,1,4.841,2.015Z" transform="translate(-1300.86 -100.46)" fill="#fff"/>
      <path id="Path_16977" data-name="Path 16977" d="M1390.082,193.248a9.221,9.221,0,0,1-8.09,4.746h-5.717l-6.867-14.229a4.024,4.024,0,0,0-3.692-2.268,3.286,3.286,0,0,0-.707.074l-5.58,1.118-.791.158-1.719-2.078-3.5-4.209-1.519-1.825,3.66-4.019,1.466-1.614h6.076a6.815,6.815,0,0,1,4.841,2.015Z" transform="translate(-1300.86 -100.46)" fill="none" stroke="#35495e" stroke-linecap="round" stroke-linejoin="round" stroke-width="1.127"/>
      <path id="Path_16978" data-name="Path 16978" d="M1362.6,117.609v14.429s-3.8,0-9.6-15.484c0,0-5.59,6.276-21.3,11.982V117.609a13.583,13.583,0,0,1,13.585-13.585h3.723A13.577,13.577,0,0,1,1362.6,117.609Z" transform="translate(-1301.966 -104.024)" fill="none" stroke="#35495e" stroke-linecap="round" stroke-linejoin="round" stroke-width="1.104"/>
      <path id="Path_16979" data-name="Path 16979" d="M1362.6,117.609v14.429s-3.8,0-9.6-15.484c0,0-5.59,6.276-21.3,11.982V117.609a13.583,13.583,0,0,1,13.585-13.585h3.723A13.577,13.577,0,0,1,1362.6,117.609Z" transform="translate(-1301.966 -104.024)" fill="url(#linear-gradient)"/>
      <path id="Path_16980" data-name="Path 16980" d="M1362.6,117.609v14.429s-3.8,0-9.6-15.484c0,0-5.59,6.276-21.3,11.982V117.609a13.583,13.583,0,0,1,13.585-13.585h3.723A13.577,13.577,0,0,1,1362.6,117.609Z" transform="translate(-1301.966 -104.024)" fill="none" stroke="#35495e" stroke-linecap="round" stroke-linejoin="round" stroke-width="1.127"/>
      <path id="Path_16981" data-name="Path 16981" d="M1361,129.85h.033a3.47,3.47,0,0,1,3.469,3.47h0a3.47,3.47,0,0,1-3.469,3.469H1361Z" transform="translate(-1300.362 -102.61)" fill="none" stroke="#35495e" stroke-linecap="round" stroke-linejoin="round" stroke-width="1.127"/>
      <path id="Path_16982" data-name="Path 16982" d="M1331.888,129.85h-.033a3.47,3.47,0,0,0-3.469,3.47h0a3.47,3.47,0,0,0,3.469,3.469h.033Z" transform="translate(-1302.148 -102.61)" fill="none" stroke="#35495e" stroke-linecap="round" stroke-linejoin="round" stroke-width="1.127"/>
      <path id="Path_16983" data-name="Path 16983" d="M1338.32,169.821a10.626,10.626,0,0,1-1.224.475s-20.135,12.2-21.981,27.7H1312.7a9.217,9.217,0,0,1-8.079-4.746l22.129-22.129a6.852,6.852,0,0,1,4.841-2.015h6.086l.633.707Z" transform="translate(-1303.449 -100.46)" opacity="0.26" fill="url(#linear-gradient)"/>
      <path id="Path_16984" data-name="Path 16984" d="M1342.8,174.736l-1.5,1.8-.01.011-3.47,4.166-1.772,2.131-.791-.158h-.011l-5.559-1.118a3.479,3.479,0,0,0-.728-.074,4.012,4.012,0,0,0-3.671,2.268l-6.867,14.229H1312.7a9.217,9.217,0,0,1-8.079-4.746l22.129-22.129a6.852,6.852,0,0,1,4.841-2.015h6.075l.644.707.01.011.812.886Z" transform="translate(-1303.449 -100.46)" fill="none" stroke="#35495e" stroke-linecap="round" stroke-linejoin="round" stroke-width="1.127"/>
    </g>
    <path id="Path_16985" data-name="Path 16985" d="M1390.09,114.254l-2.669.98a7.57,7.57,0,0,0-4.568,4.692l-.977,2.883-.971-2.772a7.573,7.573,0,0,0-4.778-4.695l-3.005-.994,2.864-.9a7.584,7.584,0,0,0,4.893-4.8l.9-2.684.967,2.763a7.593,7.593,0,0,0,4.8,4.7Z" transform="translate(4.737 0.106)" opacity="0.26" fill="url(#linear-gradient)"/>
    <path id="Path_16986" data-name="Path 16986" d="M1402.148,150.7l-2.21.811a6.268,6.268,0,0,0-3.782,3.886l-.808,2.386-.8-2.3a6.271,6.271,0,0,0-3.956-3.887l-2.487-.823,2.37-.748a6.281,6.281,0,0,0,4.051-3.976l.749-2.222.8,2.288a6.282,6.282,0,0,0,3.975,3.894Z" transform="translate(5.558 2.18)" fill="none" stroke="#bfe9ba" stroke-miterlimit="10" stroke-width="0.914"/>
    <path id="Path_16987" data-name="Path 16987" d="M1320.56,115.8l-1.6.589a4.54,4.54,0,0,0-2.742,2.816l-.587,1.731-.583-1.664a4.547,4.547,0,0,0-2.869-2.818l-1.8-.6,1.718-.543a4.552,4.552,0,0,0,2.938-2.883l.543-1.612.58,1.659a4.556,4.556,0,0,0,2.883,2.824Z" transform="translate(1.301 0.372)" fill="none" stroke="#607de5" stroke-linecap="round" stroke-linejoin="round" stroke-width="0.549"/>
    <circle id="Ellipse_40" data-name="Ellipse 40" cx="4.339" cy="4.339" r="4.339" transform="translate(1286.616 163.621)" fill="#bfe9ba"/>
  </g>
</svg>
