<svg xmlns="http://www.w3.org/2000/svg" xmlns:xlink="http://www.w3.org/1999/xlink" width="72.721" height="91.089" viewBox="0 0 72.721 91.089">
  <defs>
    <linearGradient id="linear-gradient" y1="0.5" x2="1" y2="0.5" gradientUnits="objectBoundingBox">
      <stop offset="0" stop-color="#4c6ad8"/>
      <stop offset="0.234" stop-color="#5572de"/>
      <stop offset="0.412" stop-color="#607de5"/>
    </linearGradient>
  </defs>
  <g id="Group_5822" data-name="Group 5822" transform="translate(0.375)">
    <path id="Path_16885" data-name="Path 16885" d="M697.384,701.2v39.279c0,.259-.014.519-.036.771-.014.195-.036.389-.065.577-.022.144-.05.281-.079.425a8.378,8.378,0,0,1-.4,1.355,8.19,8.19,0,0,1-.7,1.427c-.065.115-.137.223-.209.332-.13.195-.274.389-.418.569-.087.108-.173.216-.267.317s-.18.2-.274.3a8.588,8.588,0,0,1-1.579,1.3c-.115.072-.231.144-.353.216a8.435,8.435,0,0,1-1.9.822,6.192,6.192,0,0,1-.742.187q-.249.054-.5.087c-.144.022-.288.036-.432.051s-.288.022-.432.029a3.779,3.779,0,0,1-.4.014h-13.79a8.789,8.789,0,0,1-8.787-8.787V701.2l.151-.151c.951-.951,1.8-1.8,2.617-2.609q.314-.324.627-.627.346-.357.692-.692l.591-.591c1.759-1.766,3.446-3.446,5.594-5.6V672.49a11.452,11.452,0,0,0,1.629.3c.36.051.742.087,1.161.115.512.043,1.052.072,1.629.087.2.007.411.007.62.014h.375c.151,0,.3,0,.447-.007.259,0,.512-.007.764-.014s.5-.014.735-.036.469-.022.692-.043.447-.036.656-.058a13.9,13.9,0,0,0,2.112-.36v18.439Z" transform="translate(-650.558 -658.851)" fill="#fff"/>
    <path id="Path_16886" data-name="Path 16886" d="M695.921,763.089c.3-.094.6-.173.887-.252a8.194,8.194,0,0,1-.7,1.427c-.065.115-.137.223-.209.332-.13.195-.274.389-.418.569-.087.108-.173.216-.267.317s-.18.2-.274.3a8.591,8.591,0,0,1-1.579,1.3c-.115.072-.231.144-.353.216a8.432,8.432,0,0,1-1.9.822,6.2,6.2,0,0,1-.742.187q-.249.054-.5.087c-.144.022-.288.036-.432.05s-.288.022-.432.029a3.763,3.763,0,0,1-.4.014h-13.79a8.789,8.789,0,0,1-8.787-8.787V741.37c1.593,7.547,6.423,21.863,20.162,22.937A26.666,26.666,0,0,0,695.921,763.089Z" transform="translate(-650.558 -678.079)" fill="url(#linear-gradient)"/>
    <path id="Path_16887" data-name="Path 16887" d="M697.384,701.2v39.279c0,.259-.014.519-.036.771-.014.195-.036.389-.065.577-.022.144-.05.281-.079.425a8.378,8.378,0,0,1-.4,1.355,8.19,8.19,0,0,1-.7,1.427c-.065.115-.137.223-.209.332-.13.195-.274.389-.418.569-.087.108-.173.216-.267.317s-.18.2-.274.3a8.588,8.588,0,0,1-1.579,1.3c-.115.072-.231.144-.353.216a8.435,8.435,0,0,1-1.9.822,6.192,6.192,0,0,1-.742.187q-.249.054-.5.087c-.144.022-.288.036-.432.051s-.288.022-.432.029a3.779,3.779,0,0,1-.4.014h-13.79a8.789,8.789,0,0,1-8.787-8.787V701.2l.151-.151c.951-.951,1.8-1.8,2.617-2.609q.314-.324.627-.627.346-.357.692-.692l.591-.591c1.759-1.766,3.446-3.446,5.594-5.6V672.49a11.452,11.452,0,0,0,1.629.3c.36.051.742.087,1.161.115.512.043,1.052.072,1.629.087.2.007.411.007.62.014h.375c.151,0,.3,0,.447-.007.259,0,.512-.007.764-.014s.5-.014.735-.036.469-.022.692-.043.447-.036.656-.058a13.9,13.9,0,0,0,2.112-.36v18.439Z" transform="translate(-650.558 -658.851)" fill="none" stroke="#35495e" stroke-linecap="round" stroke-linejoin="round" stroke-width="1.17"/>
    <path id="Path_16888" data-name="Path 16888" d="M691.753,660.46v8.023c0,.238-.4.469-1.081.649a21.786,21.786,0,0,1-4.959.512c-.151.007-.3.007-.447.007a23.039,23.039,0,0,1-5.414-.519c-.685-.18-1.081-.411-1.081-.649V660.46Z" transform="translate(-654.117 -655.493)" fill="none" stroke="#35495e" stroke-linecap="round" stroke-linejoin="round" stroke-width="1.17"/>
    <path id="Path_16889" data-name="Path 16889" d="M732.281,659.181l-1.805.662a5.12,5.12,0,0,0-3.09,3.174l-.66,1.95-.657-1.876a5.121,5.121,0,0,0-3.232-3.175l-2.032-.672,1.937-.611a5.13,5.13,0,0,0,3.309-3.249l.612-1.815.654,1.869a5.136,5.136,0,0,0,3.247,3.182Z" transform="translate(-665.851 -653.569)" opacity="0.26" fill="url(#linear-gradient)"/>
    <path id="Path_16890" data-name="Path 16890" stroke="#707070" d="M654.078,761.659l-1.5.548a4.238,4.238,0,0,0-2.559,2.624l-.541,1.615-.548-1.55a4.222,4.222,0,0,0-2.674-2.631l-1.687-.555,1.607-.5a4.259,4.259,0,0,0,2.739-2.689l.5-1.507.541,1.55a4.26,4.26,0,0,0,2.689,2.631Z" fill="none" transform="translate(-644.57 -682.445)" stroke-linecap="round" stroke-linejoin="round" stroke-width="0.749" opacity="0.26"/>
    <path id="Path_16891" data-name="Path 16891" d="M656,673.514l-1.083.4a3.073,3.073,0,0,0-1.855,1.905l-.4,1.171-.394-1.126a3.075,3.075,0,0,0-1.941-1.906l-1.22-.4,1.163-.367a3.08,3.08,0,0,0,1.987-1.95l.367-1.09.393,1.122a3.083,3.083,0,0,0,1.95,1.91Z" transform="translate(-645.837 -658.196)" fill="none" stroke="#607de5" stroke-linecap="round" stroke-linejoin="round" stroke-width="0.543"/>
    <circle id="Ellipse_24" data-name="Ellipse 24" cx="2.935" cy="2.935" r="2.935" transform="translate(44.556 25.941)" fill="none" stroke="#bfe9ba" stroke-miterlimit="10" stroke-width="0.905"/>
    <path id="Path_16892" data-name="Path 16892" d="M697.384,701.2v39.279c0,.259-.014.519-.036.771-.014.195-.036.389-.065.577-.022.144-.05.281-.079.425a8.378,8.378,0,0,1-.4,1.355,8.19,8.19,0,0,1-.7,1.427c-.065.115-.137.223-.209.332-.13.195-.274.389-.418.569-.087.108-.173.216-.267.317s-.18.2-.274.3a8.588,8.588,0,0,1-1.579,1.3c-.115.072-.231.144-.353.216a8.435,8.435,0,0,1-1.9.822c-.238.072-.49.137-.742.187q-.249.054-.5.087c-.144.022-.288.036-.432.051s-.288.022-.432.029a3.779,3.779,0,0,1-.4.014h-13.79a8.789,8.789,0,0,1-8.787-8.787V701.2l.151-.151c.951-.951,1.8-1.8,2.617-2.609q.314-.324.627-.627.346-.357.692-.692l.591-.591c1.759-1.766,3.446-3.446,5.594-5.6V672.49a11.452,11.452,0,0,0,1.629.3c.36.051.75.087,1.161.115.512.043,1.052.072,1.629.087.2.007.411.007.62.014h.375c.151,0,.3,0,.447-.007.259,0,.512-.007.764-.014s.5-.014.735-.036.469-.022.692-.043.447-.036.656-.058a13.9,13.9,0,0,0,2.112-.36v18.439Z" transform="translate(-650.558 -658.851)" fill="none" stroke="#35495e" stroke-linecap="round" stroke-linejoin="round" stroke-width="1.17"/>
    <path id="Path_16893" data-name="Path 16893" d="M685.712,669.644c-.151.007-.3.007-.447.007a23.039,23.039,0,0,1-5.414-.519c-.685-.18-1.081-.411-1.081-.649V660.46h5.9c-.3.872-2.487,7.583.988,9.162A.348.348,0,0,1,685.712,669.644Z" transform="translate(-654.117 -655.493)" opacity="0.44" fill="url(#linear-gradient)"/>
    <path id="Path_16894" data-name="Path 16894" d="M691.753,660.46v8.023c0,.238-.4.469-1.081.649a21.786,21.786,0,0,1-4.959.512c-.151.007-.3.007-.447.007a23.039,23.039,0,0,1-5.414-.519c-.685-.18-1.081-.411-1.081-.649V660.46Z" transform="translate(-654.117 -655.493)" fill="none" stroke="#35495e" stroke-linecap="round" stroke-linejoin="round" stroke-width="1.17"/>
    <path id="Path_16895" data-name="Path 16895" d="M689,749.253a3.779,3.779,0,0,1-.4.014h-13.79a8.789,8.789,0,0,1-8.787-8.787V701.2l.151-.151c.951-.951,1.8-1.8,2.617-2.609q.314-.324.627-.627.346-.357.692-.692l.591-.591c1.759-1.766,3.446-3.446,5.594-5.6V672.49a11.452,11.452,0,0,0,1.629.3c.36.051.75.087,1.161.115.512.043,1.052.072,1.629.087.2.007.411.007.62.014h.18a2.029,2.029,0,0,1-.007.209s-5.63,51.944,4.678,71.862a19.7,19.7,0,0,0,2.53,3.828C688.813,749.023,688.907,749.138,689,749.253Z" transform="translate(-650.558 -658.851)" opacity="0.44" fill="url(#linear-gradient)"/>
    <g id="Group_5821" data-name="Group 5821" transform="translate(35.632 48.153)">
      <path id="Path_16896" data-name="Path 16896" d="M730.042,720.37l-7.447,7.455-10.57,10.57-14.53-14.53-3.5-3.5Z" transform="translate(-694 -720.37)" fill="#fff"/>
      <g id="Group_5819" data-name="Group 5819">
        <path id="Path_16897" data-name="Path 16897" d="M730.042,720.37l-7.447,7.455-10.57,10.57-14.53-14.53-3.5-3.5Z" transform="translate(-694 -720.37)" fill="none" stroke="#35495e" stroke-linecap="round" stroke-linejoin="round" stroke-width="1.344"/>
        <path id="Path_16898" data-name="Path 16898" d="M719.01,769.615V745.38" transform="translate(-700.982 -727.351)" fill="none" stroke="#35495e" stroke-linecap="round" stroke-linejoin="round" stroke-width="0.862"/>
        <path id="Path_16899" data-name="Path 16899" d="M722.238,779H711.67" transform="translate(-698.933 -736.736)" fill="none" stroke="#35495e" stroke-linecap="round" stroke-linejoin="round" stroke-width="1.344"/>
      </g>
      <path id="Path_16900" data-name="Path 16900" d="M724.28,729.114l-10.57,10.57-14.53-14.53c4.755-.29,13.586-.48,15.971,1.905C716.643,728.551,720.5,729.04,724.28,729.114Z" transform="translate(-695.446 -721.659)" fill="url(#linear-gradient)"/>
      <g id="Group_5820" data-name="Group 5820">
        <path id="Path_16901" data-name="Path 16901" d="M730.042,720.37l-7.447,7.455-10.57,10.57-14.53-14.53-3.5-3.5Z" transform="translate(-694 -720.37)" fill="none" stroke="#35495e" stroke-linecap="round" stroke-linejoin="round" stroke-width="1.344"/>
        <path id="Path_16902" data-name="Path 16902" d="M719.01,769.615V745.38" transform="translate(-700.982 -727.351)" fill="none" stroke="#35495e" stroke-linecap="round" stroke-linejoin="round" stroke-width="1.344"/>
        <path id="Path_16903" data-name="Path 16903" d="M722.238,779H711.67" transform="translate(-698.933 -736.736)" fill="none" stroke="#35495e" stroke-linecap="round" stroke-linejoin="round" stroke-width="1.344"/>
      </g>
    </g>
  </g>
</svg>
