<svg xmlns="http://www.w3.org/2000/svg" xmlns:xlink="http://www.w3.org/1999/xlink" width="132.977" height="105.627" viewBox="0 0 132.977 105.627">
  <defs>
    <linearGradient id="linear-gradient" y1="0.5" x2="1" y2="0.5" gradientUnits="objectBoundingBox">
      <stop offset="0" stop-color="#4c6ad8"/>
      <stop offset="0.234" stop-color="#5572de"/>
      <stop offset="0.412" stop-color="#607de5"/>
    </linearGradient>
  </defs>
  <g id="Group_5833" data-name="Group 5833" transform="translate(-1279.646 -239.033)">
    <path id="Path_16998" data-name="Path 16998" d="M1319.573,253.774l-1.992.732a5.649,5.649,0,0,0-3.41,3.5l-.728,2.152-.726-2.07a5.656,5.656,0,0,0-3.567-3.5l-2.242-.741,2.137-.675a5.662,5.662,0,0,0,3.652-3.585l.676-2,.721,2.063a5.665,5.665,0,0,0,3.584,3.51Z" opacity="0.26" fill="url(#linear-gradient)"/>
    <path id="Path_16999" data-name="Path 16999" d="M1349,245.267l-1.649.6a4.678,4.678,0,0,0-2.823,2.9l-.6,1.781-.6-1.713a4.68,4.68,0,0,0-2.953-2.9l-1.857-.614,1.769-.559a4.684,4.684,0,0,0,3.024-2.968l.56-1.658.6,1.707a4.691,4.691,0,0,0,2.967,2.907Z" fill="none" stroke="#bfe9ba" stroke-miterlimit="10" stroke-width="0.72"/>
    <path id="Path_17000" data-name="Path 17000" d="M1412.407,292.076l-1.2.439a3.394,3.394,0,0,0-2.048,2.1l-.437,1.292-.435-1.242a3.394,3.394,0,0,0-2.142-2.1l-1.346-.445,1.283-.4a3.4,3.4,0,0,0,2.193-2.152l.4-1.2.433,1.238a3.4,3.4,0,0,0,2.152,2.108Z" fill="none" stroke="#607de5" stroke-linecap="round" stroke-linejoin="round" stroke-width="0.432"/>
    <circle id="Ellipse_45" data-name="Ellipse 45" cx="3.239" cy="3.239" r="3.239" transform="translate(1369.766 338.182)" fill="#bfe9ba"/>
    <g id="Group_5831" data-name="Group 5831">
      <path id="Path_17001" data-name="Path 17001" d="M1374.595,303.624c2.543-1.909,3.571-5.646,1.682-6.867-6.533-4.225,1.175-30.025,1.175-30.025H1375.1a8.6,8.6,0,0,0-8.6,8.6v14.548a6.63,6.63,0,0,0,5.166,6.46l.153,5.967Z" opacity="0.26" fill="url(#linear-gradient)"/>
      <path id="Path_17002" data-name="Path 17002" d="M1386.047,275.328v14.548a6.623,6.623,0,0,1-5.165,6.46v5.887l-1.789.941a6.014,6.014,0,0,1-5.625.006l-1.8-.947v-5.887a6.63,6.63,0,0,1-5.166-6.46V275.328a8.6,8.6,0,0,1,8.6-8.6h2.356A8.59,8.59,0,0,1,1386.047,275.328Z" fill="none" stroke="#35495e" stroke-linecap="round" stroke-linejoin="round" stroke-width="0.752"/>
      <path id="Path_17003" data-name="Path 17003" d="M1404.8,323.509a5.707,5.707,0,0,1-.667,1.929,5.834,5.834,0,0,1-5.119,3h-45.481a5.844,5.844,0,0,1-5.546-7.7l3.557-10.678a11.472,11.472,0,0,1,9.043-7.7,11.336,11.336,0,0,1,1.849-.153h9.223l.006.006,1.8.948a6.025,6.025,0,0,0,5.632-.007l1.789-.941.013-.006h9.223a11.485,11.485,0,0,1,10.892,7.848l3.557,10.678A5.832,5.832,0,0,1,1404.8,323.509Z" fill="none" stroke="#35495e" stroke-linecap="round" stroke-linejoin="round" stroke-width="0.752"/>
      <path id="Path_17004" data-name="Path 17004" d="M1371.667,296.333l.721.115a24.845,24.845,0,0,0,8.234-.069l.26-.046" fill="none" stroke="#35495e" stroke-linecap="round" stroke-linejoin="round" stroke-width="0.752"/>
      <path id="Path_17005" data-name="Path 17005" d="M1386.047,275.328v9.129s-2.4,0-6.073-9.8c0,0-3.537,3.971-13.474,7.581v-6.913a8.6,8.6,0,0,1,8.6-8.6h2.356A8.59,8.59,0,0,1,1386.047,275.328Z" fill="none" stroke="#35495e" stroke-linecap="round" stroke-linejoin="round" stroke-width="0.737"/>
      <path id="Path_17006" data-name="Path 17006" d="M1386.047,275.328v9.129s-2.4,0-6.073-9.8c0,0-3.537,3.971-13.474,7.581v-6.913a8.6,8.6,0,0,1,8.6-8.6h2.356A8.59,8.59,0,0,1,1386.047,275.328Z" fill="none" stroke="#35495e" stroke-linecap="round" stroke-linejoin="round" stroke-width="0.752"/>
      <path id="Path_17007" data-name="Path 17007" d="M1386.047,283.968h.021a2.2,2.2,0,0,1,2.195,2.2h0a2.2,2.2,0,0,1-2.195,2.2h-.021Z" fill="none" stroke="#35495e" stroke-linecap="round" stroke-linejoin="round" stroke-width="0.752"/>
      <path id="Path_17008" data-name="Path 17008" d="M1366.5,283.968h-.02a2.2,2.2,0,0,0-2.2,2.2h0a2.2,2.2,0,0,0,2.2,2.2h.02Z" fill="none" stroke="#35495e" stroke-linecap="round" stroke-linejoin="round" stroke-width="0.752"/>
      <path id="Path_17009" data-name="Path 17009" d="M1404.8,323.509a5.707,5.707,0,0,1-.667,1.929,5.834,5.834,0,0,1-5.119,3h-45.481a5.844,5.844,0,0,1-5.546-7.7l3.557-10.678a11.472,11.472,0,0,1,9.043-7.7C1361.664,305.257,1372.936,333.033,1404.8,323.509Z" opacity="0.26" fill="url(#linear-gradient)"/>
    </g>
    <g id="Group_5832" data-name="Group 5832">
      <path id="Path_17010" data-name="Path 17010" d="M1306.954,303.624c2.543-1.909,3.57-5.646,1.682-6.867-6.534-4.225,1.174-30.025,1.174-30.025h-2.356a8.594,8.594,0,0,0-8.595,8.6v14.548a6.63,6.63,0,0,0,5.165,6.46l.154,5.967Z" opacity="0.26" fill="url(#linear-gradient)"/>
      <path id="Path_17011" data-name="Path 17011" d="M1318.406,275.328v14.548a6.623,6.623,0,0,1-5.166,6.46v5.887l-1.788.941a6.015,6.015,0,0,1-5.626.006l-1.8-.947v-5.887a6.63,6.63,0,0,1-5.165-6.46V275.328a8.594,8.594,0,0,1,8.595-8.6h2.356A8.59,8.59,0,0,1,1318.406,275.328Z" fill="none" stroke="#35495e" stroke-linecap="round" stroke-linejoin="round" stroke-width="0.752"/>
      <path id="Path_17012" data-name="Path 17012" d="M1337.162,323.509a5.708,5.708,0,0,1-.668,1.929,5.833,5.833,0,0,1-5.118,3h-45.482a5.844,5.844,0,0,1-5.546-7.7l3.558-10.678a11.472,11.472,0,0,1,9.042-7.7,11.354,11.354,0,0,1,1.849-.153h9.223l.007.006,1.8.948a6.027,6.027,0,0,0,5.633-.007l1.788-.941.014-.006h9.223a11.484,11.484,0,0,1,10.891,7.848l3.557,10.678A5.822,5.822,0,0,1,1337.162,323.509Z" fill="none" stroke="#35495e" stroke-linecap="round" stroke-linejoin="round" stroke-width="0.752"/>
      <path id="Path_17013" data-name="Path 17013" d="M1304.025,296.333l.722.115a24.839,24.839,0,0,0,8.233-.069l.261-.046" fill="none" stroke="#35495e" stroke-linecap="round" stroke-linejoin="round" stroke-width="0.752"/>
      <path id="Path_17014" data-name="Path 17014" d="M1318.406,275.328v9.129s-2.4,0-6.073-9.8c0,0-3.537,3.971-13.474,7.581v-6.913a8.594,8.594,0,0,1,8.595-8.6h2.356A8.59,8.59,0,0,1,1318.406,275.328Z" fill="none" stroke="#35495e" stroke-linecap="round" stroke-linejoin="round" stroke-width="0.737"/>
      <path id="Path_17015" data-name="Path 17015" d="M1318.406,275.328v9.129s-2.4,0-6.073-9.8c0,0-3.537,3.971-13.474,7.581v-6.913a8.594,8.594,0,0,1,8.595-8.6h2.356A8.59,8.59,0,0,1,1318.406,275.328Z" fill="none" stroke="#35495e" stroke-linecap="round" stroke-linejoin="round" stroke-width="0.752"/>
      <path id="Path_17016" data-name="Path 17016" d="M1318.406,283.968h.02a2.2,2.2,0,0,1,2.2,2.2h0a2.2,2.2,0,0,1-2.2,2.2h-.02Z" fill="none" stroke="#35495e" stroke-linecap="round" stroke-linejoin="round" stroke-width="0.752"/>
      <path id="Path_17017" data-name="Path 17017" d="M1298.859,283.968h-.021a2.2,2.2,0,0,0-2.2,2.2h0a2.2,2.2,0,0,0,2.2,2.2h.021Z" fill="none" stroke="#35495e" stroke-linecap="round" stroke-linejoin="round" stroke-width="0.752"/>
      <path id="Path_17018" data-name="Path 17018" d="M1337.162,323.509a5.708,5.708,0,0,1-.668,1.929,5.833,5.833,0,0,1-5.118,3h-45.482a5.844,5.844,0,0,1-5.546-7.7l3.558-10.678a11.472,11.472,0,0,1,9.042-7.7C1294.023,305.257,1305.3,333.033,1337.162,323.509Z" opacity="0.26" fill="url(#linear-gradient)"/>
    </g>
    <path id="Path_17019" data-name="Path 17019" d="M1340.386,304.563c3-2.251,4.212-6.66,1.984-8.1-7.708-4.983,1.385-35.42,1.385-35.42h-2.779a10.138,10.138,0,0,0-10.14,10.14v17.163a7.823,7.823,0,0,0,6.093,7.621l.181,7.039Z" opacity="0.26" fill="url(#linear-gradient)"/>
    <path id="Path_17020" data-name="Path 17020" d="M1353.9,271.182v17.163a7.815,7.815,0,0,1-6.094,7.621v6.944l-2.11,1.11a7.1,7.1,0,0,1-6.637.008l-2.126-1.118v-6.944a7.823,7.823,0,0,1-6.093-7.621V271.182a10.138,10.138,0,0,1,10.14-10.14h2.779A10.133,10.133,0,0,1,1353.9,271.182Z" fill="none" stroke="#35495e" stroke-linecap="round" stroke-linejoin="round" stroke-width="0.888"/>
    <path id="Path_17021" data-name="Path 17021" d="M1376.022,328.022a6.745,6.745,0,0,1-.787,2.275,6.883,6.883,0,0,1-6.039,3.543h-53.654a6.894,6.894,0,0,1-6.543-9.085l4.2-12.6a13.534,13.534,0,0,1,10.667-9.077,13.272,13.272,0,0,1,2.181-.182h10.881l.008.008,2.117,1.118a7.108,7.108,0,0,0,6.645-.008l2.11-1.11.016-.008h10.88a13.549,13.549,0,0,1,12.849,9.259l4.2,12.6A6.875,6.875,0,0,1,1376.022,328.022Z" fill="#fff" stroke="#35495e" stroke-linecap="round" stroke-linejoin="round" stroke-width="0.888"/>
    <path id="Path_17022" data-name="Path 17022" d="M1336.931,295.963l.851.135a29.321,29.321,0,0,0,9.713-.081l.307-.054" fill="none" stroke="#35495e" stroke-linecap="round" stroke-linejoin="round" stroke-width="0.888"/>
    <path id="Path_17023" data-name="Path 17023" d="M1353.9,271.182v10.77s-2.835,0-7.165-11.557c0,0-4.172,4.684-15.895,8.943v-8.156a10.138,10.138,0,0,1,10.14-10.14h2.779A10.133,10.133,0,0,1,1353.9,271.182Z" fill="none" stroke="#35495e" stroke-linecap="round" stroke-linejoin="round" stroke-width="0.869"/>
    <path id="Path_17024" data-name="Path 17024" d="M1353.9,271.182v10.77s-2.835,0-7.165-11.557c0,0-4.172,4.684-15.895,8.943v-8.156a10.138,10.138,0,0,1,10.14-10.14h2.779A10.133,10.133,0,0,1,1353.9,271.182Z" fill="url(#linear-gradient)"/>
    <path id="Path_17025" data-name="Path 17025" d="M1353.9,271.182v10.77s-2.835,0-7.165-11.557c0,0-4.172,4.684-15.895,8.943v-8.156a10.138,10.138,0,0,1,10.14-10.14h2.779A10.133,10.133,0,0,1,1353.9,271.182Z" fill="none" stroke="#35495e" stroke-linecap="round" stroke-linejoin="round" stroke-width="0.888"/>
    <path id="Path_17026" data-name="Path 17026" d="M1353.9,281.375h.024a2.589,2.589,0,0,1,2.589,2.59h0a2.589,2.589,0,0,1-2.589,2.589h-.024Z" fill="none" stroke="#35495e" stroke-linecap="round" stroke-linejoin="round" stroke-width="0.888"/>
    <path id="Path_17027" data-name="Path 17027" d="M1330.836,281.375h-.024a2.589,2.589,0,0,0-2.59,2.59h0a2.589,2.589,0,0,0,2.59,2.589h.024Z" fill="none" stroke="#35495e" stroke-linecap="round" stroke-linejoin="round" stroke-width="0.888"/>
    <path id="Path_17028" data-name="Path 17028" d="M1376.022,328.022a6.745,6.745,0,0,1-.787,2.275,6.883,6.883,0,0,1-6.039,3.543h-53.654a6.894,6.894,0,0,1-6.543-9.085l4.2-12.6a13.534,13.534,0,0,1,10.667-9.077C1325.131,306.49,1338.428,339.257,1376.022,328.022Z" fill="url(#linear-gradient)"/>
  </g>
</svg>
