<?xml version="1.0" encoding="utf-8"?>
<!-- Generator: Adobe Illustrator 22.0.0, SVG Export Plug-In . SVG Version: 6.00 Build 0)  -->
<svg version="1.1" id="left-arrow_2_" xmlns="http://www.w3.org/2000/svg" xmlns:xlink="http://www.w3.org/1999/xlink" x="0px"
	 y="0px" viewBox="0 0 18 11.2" style="enable-background:new 0 0 18 11.2;" xml:space="preserve">
<path id="Path_16853" d="M0.8,4.8h14.6l-3.5-3.5C11.6,1,11.6,0.5,12,0.2c0.3-0.3,0.7-0.3,1,0L17.8,5c0.3,0.3,0.3,0.8,0,1.1L13,10.9
	c-0.3,0.3-0.8,0.2-1.1-0.1c-0.3-0.3-0.3-0.7,0-1l3.5-3.5H0.8C0.3,6.4,0,6,0,5.6S0.3,4.8,0.8,4.8C0.7,4.8,0.8,4.8,0.8,4.8L0.8,4.8z"
	/>
</svg>
